<svg width="460" height="91" viewBox="0 0 460 91" fill="none" xmlns="http://www.w3.org/2000/svg">
<g clip-path="url(#clip0_96_12)">
<path d="M155.884 39.5859H146.863C146.698 38.4188 146.362 37.3821 145.854 36.4759C145.346 35.5559 144.693 34.7732 143.897 34.1278C143.101 33.4825 142.181 32.9882 141.137 32.6449C140.107 32.3016 138.988 32.13 137.78 32.13C135.597 32.13 133.695 32.6723 132.075 33.7571C130.454 34.8281 129.198 36.3935 128.305 38.4531C127.413 40.4991 126.967 42.9844 126.967 45.9091C126.967 48.9162 127.413 51.4427 128.305 53.4886C129.212 55.5346 130.475 57.0793 132.095 58.1229C133.715 59.1664 135.59 59.6882 137.718 59.6882C138.913 59.6882 140.018 59.5303 141.034 59.2145C142.064 58.8987 142.977 58.4387 143.773 57.8345C144.57 57.2166 145.229 56.4683 145.751 55.5895C146.286 54.7107 146.657 53.7083 146.863 52.5824L155.884 52.6236C155.651 54.5597 155.067 56.4271 154.134 58.2259C153.214 60.0109 151.971 61.6106 150.406 63.0249C148.854 64.4254 147 65.5376 144.844 66.3615C142.702 67.1716 140.279 67.5767 137.574 67.5767C133.812 67.5767 130.447 66.7254 127.482 65.0227C124.529 63.3201 122.195 60.8554 120.479 57.6286C118.776 54.4018 117.925 50.4953 117.925 45.9091C117.925 41.3092 118.79 37.3958 120.52 34.169C122.25 30.9422 124.598 28.4844 127.564 26.7955C130.53 25.0928 133.866 24.2415 137.574 24.2415C140.018 24.2415 142.284 24.5848 144.371 25.2713C146.472 25.9579 148.332 26.9602 149.952 28.2784C151.573 29.5829 152.891 31.1825 153.907 33.0774C154.937 34.9723 155.596 37.1418 155.884 39.5859ZM171.136 67.5973C169.118 67.5973 167.319 67.2472 165.74 66.5469C164.161 65.8329 162.911 64.7824 161.991 63.3956C161.085 61.995 160.632 60.2512 160.632 58.1641C160.632 56.4065 160.954 54.9304 161.6 53.7358C162.245 52.5412 163.124 51.58 164.236 50.8523C165.348 50.1245 166.612 49.5753 168.026 49.2045C169.454 48.8338 170.951 48.5729 172.516 48.4219C174.356 48.2296 175.839 48.0511 176.965 47.8864C178.091 47.7079 178.908 47.447 179.416 47.1037C179.924 46.7604 180.178 46.2524 180.178 45.5795V45.456C180.178 44.1515 179.766 43.1423 178.942 42.4283C178.132 41.7143 176.979 41.3572 175.482 41.3572C173.903 41.3572 172.646 41.7074 171.713 42.4077C170.779 43.0942 170.161 43.9593 169.859 45.0028L161.744 44.3438C162.156 42.4214 162.966 40.7599 164.174 39.3594C165.383 37.9451 166.941 36.8603 168.85 36.1051C170.772 35.3362 172.997 34.9517 175.523 34.9517C177.281 34.9517 178.963 35.1577 180.569 35.5696C182.19 35.9815 183.624 36.62 184.874 37.4851C186.137 38.3501 187.133 39.4624 187.86 40.8217C188.588 42.1674 188.952 43.7808 188.952 45.6619V67H180.631V62.6129H180.384C179.876 63.6016 179.196 64.4735 178.345 65.2287C177.493 65.9702 176.471 66.5537 175.276 66.9794C174.081 67.3913 172.701 67.5973 171.136 67.5973ZM173.649 61.5419C174.94 61.5419 176.079 61.2879 177.068 60.7798C178.056 60.258 178.832 59.5578 179.395 58.679C179.958 57.8002 180.24 56.8047 180.24 55.6925V52.3352C179.965 52.5137 179.587 52.6785 179.107 52.8295C178.64 52.9669 178.111 53.0973 177.521 53.2209C176.931 53.3307 176.34 53.4337 175.75 53.5298C175.159 53.6122 174.624 53.6877 174.143 53.7564C173.113 53.9074 172.214 54.1477 171.445 54.4773C170.676 54.8068 170.079 55.2531 169.653 55.8161C169.227 56.3653 169.015 57.0518 169.015 57.8757C169.015 59.0703 169.447 59.9834 170.312 60.6151C171.191 61.233 172.303 61.5419 173.649 61.5419ZM204.533 24.8182V67H195.759V24.8182H204.533ZM225.98 67.6179C222.725 67.6179 219.924 66.9588 217.576 65.6406C215.242 64.3087 213.443 62.4276 212.18 59.9972C210.917 57.553 210.285 54.6626 210.285 51.326C210.285 48.0717 210.917 45.2157 212.18 42.7578C213.443 40.3 215.221 38.3845 217.514 37.0114C219.821 35.6383 222.526 34.9517 225.629 34.9517C227.717 34.9517 229.66 35.2881 231.458 35.9609C233.271 36.62 234.85 37.6155 236.195 38.9474C237.555 40.2794 238.612 41.9545 239.367 43.973C240.123 45.9777 240.5 48.3258 240.5 51.017V53.4268H213.786V47.9893H232.241C232.241 46.7261 231.966 45.607 231.417 44.6321C230.868 43.6572 230.106 42.8951 229.131 42.3459C228.17 41.7829 227.051 41.5014 225.774 41.5014C224.442 41.5014 223.261 41.8104 222.231 42.4283C221.215 43.0324 220.419 43.8494 219.842 44.8793C219.265 45.8954 218.97 47.0282 218.956 48.2777V53.4474C218.956 55.0128 219.244 56.3653 219.821 57.505C220.412 58.6446 221.242 59.5234 222.313 60.1413C223.384 60.7592 224.655 61.0682 226.124 61.0682C227.099 61.0682 227.991 60.9309 228.801 60.6562C229.611 60.3816 230.305 59.9697 230.882 59.4205C231.458 58.8712 231.898 58.1984 232.2 57.402L240.315 57.9375C239.903 59.8873 239.058 61.59 237.781 63.0455C236.518 64.4872 234.884 65.6132 232.879 66.4233C230.888 67.2197 228.588 67.6179 225.98 67.6179ZM255 48.7102V67H246.226V35.3636H254.588V40.9453H254.959C255.659 39.1053 256.833 37.6499 258.481 36.5788C260.129 35.4941 262.127 34.9517 264.475 34.9517C266.672 34.9517 268.587 35.4323 270.221 36.3935C271.855 37.3546 273.125 38.7277 274.031 40.5128C274.938 42.2841 275.391 44.3987 275.391 46.8565V67H266.617V48.4219C266.63 46.4858 266.136 44.9754 265.134 43.8906C264.131 42.7921 262.751 42.2429 260.994 42.2429C259.813 42.2429 258.769 42.4969 257.863 43.005C256.971 43.513 256.27 44.2545 255.762 45.2294C255.268 46.1906 255.014 47.3509 255 48.7102ZM293.964 67.5149C291.561 67.5149 289.384 66.897 287.435 65.6612C285.499 64.4117 283.961 62.5786 282.821 60.1619C281.695 57.7315 281.132 54.7519 281.132 51.223C281.132 47.598 281.716 44.584 282.883 42.1811C284.05 39.7644 285.602 37.9588 287.538 36.7642C289.487 35.5559 291.623 34.9517 293.943 34.9517C295.714 34.9517 297.191 35.2538 298.371 35.858C299.566 36.4484 300.527 37.1899 301.255 38.0824C301.996 38.9612 302.559 39.8262 302.944 40.6776H303.212V24.8182H311.965V67H303.315V61.9332H302.944C302.532 62.812 301.948 63.6839 301.193 64.549C300.452 65.4003 299.484 66.1075 298.289 66.6705C297.108 67.2334 295.666 67.5149 293.964 67.5149ZM296.744 60.5327C298.159 60.5327 299.353 60.1482 300.328 59.3793C301.317 58.5966 302.072 57.505 302.594 56.1044C303.129 54.7038 303.397 53.063 303.397 51.1818C303.397 49.3007 303.136 47.6667 302.614 46.2798C302.093 44.893 301.337 43.822 300.349 43.0668C299.36 42.3116 298.159 41.9339 296.744 41.9339C295.303 41.9339 294.087 42.3253 293.099 43.108C292.11 43.8906 291.362 44.9754 290.854 46.3622C290.346 47.7491 290.092 49.3556 290.092 51.1818C290.092 53.0218 290.346 54.6489 290.854 56.0632C291.375 57.4638 292.124 58.5623 293.099 59.3587C294.087 60.1413 295.303 60.5327 296.744 60.5327ZM328.2 67.5973C326.182 67.5973 324.383 67.2472 322.804 66.5469C321.225 65.8329 319.976 64.7824 319.056 63.3956C318.149 61.995 317.696 60.2512 317.696 58.1641C317.696 56.4065 318.019 54.9304 318.664 53.7358C319.31 52.5412 320.188 51.58 321.301 50.8523C322.413 50.1245 323.676 49.5753 325.09 49.2045C326.518 48.8338 328.015 48.5729 329.58 48.4219C331.42 48.2296 332.903 48.0511 334.029 47.8864C335.155 47.7079 335.972 47.447 336.48 47.1037C336.988 46.7604 337.242 46.2524 337.242 45.5795V45.456C337.242 44.1515 336.83 43.1423 336.007 42.4283C335.196 41.7143 334.043 41.3572 332.546 41.3572C330.967 41.3572 329.711 41.7074 328.777 42.4077C327.843 43.0942 327.226 43.9593 326.923 45.0028L318.808 44.3438C319.22 42.4214 320.03 40.7599 321.239 39.3594C322.447 37.9451 324.006 36.8603 325.914 36.1051C327.837 35.3362 330.061 34.9517 332.588 34.9517C334.345 34.9517 336.027 35.1577 337.634 35.5696C339.254 35.9815 340.689 36.62 341.938 37.4851C343.202 38.3501 344.197 39.4624 344.925 40.8217C345.653 42.1674 346.017 43.7808 346.017 45.6619V67H337.695V62.6129H337.448C336.94 63.6016 336.261 64.4735 335.409 65.2287C334.558 65.9702 333.535 66.5537 332.34 66.9794C331.146 67.3913 329.766 67.5973 328.2 67.5973ZM330.713 61.5419C332.004 61.5419 333.144 61.2879 334.132 60.7798C335.121 60.258 335.897 59.5578 336.46 58.679C337.023 57.8002 337.304 56.8047 337.304 55.6925V52.3352C337.03 52.5137 336.652 52.6785 336.171 52.8295C335.704 52.9669 335.176 53.0973 334.585 53.2209C333.995 53.3307 333.405 53.4337 332.814 53.5298C332.224 53.6122 331.688 53.6877 331.208 53.7564C330.178 53.9074 329.278 54.1477 328.509 54.4773C327.74 54.8068 327.143 55.2531 326.718 55.8161C326.292 56.3653 326.079 57.0518 326.079 57.8757C326.079 59.0703 326.512 59.9834 327.377 60.6151C328.255 61.233 329.368 61.5419 330.713 61.5419ZM352.824 67V35.3636H361.33V40.8835H361.66C362.236 38.92 363.204 37.437 364.564 36.4347C365.923 35.4186 367.488 34.9105 369.26 34.9105C369.699 34.9105 370.173 34.938 370.681 34.9929C371.189 35.0478 371.635 35.1233 372.02 35.2195V43.005C371.608 42.8814 371.038 42.7715 370.31 42.6754C369.582 42.5793 368.916 42.5312 368.312 42.5312C367.022 42.5312 365.868 42.8127 364.852 43.3757C363.85 43.925 363.053 44.6939 362.463 45.6825C361.886 46.6712 361.598 47.8108 361.598 49.1016V67H352.824Z" fill="#0443F2"/>
<path fill-rule="evenodd" clip-rule="evenodd" d="M85 72.1111C85 76.468 81.4742 80 77.125 80H29.875C25.5258 80 22 76.468 22 72.1111V32.6667H85V72.1111Z" fill="url(#paint0_linear_96_12)"/>
<path d="M41.6875 9C43.8621 9 45.625 10.766 45.625 12.9444V16.8889H61.375V12.9444C61.375 10.766 63.1379 9 65.3125 9H69.25C71.4246 9 73.1875 10.766 73.1875 12.9444V16.8889H77.125C81.4742 16.8889 85 20.4209 85 24.7778V28.7222H22V24.7778C22 20.4209 25.5258 16.8889 29.875 16.8889H33.8125V12.9444C33.8125 10.766 35.5754 9 37.75 9H41.6875Z" fill="url(#paint1_linear_96_12)"/>
</g>
<defs>
<linearGradient id="paint0_linear_96_12" x1="22" y1="32.6667" x2="67.6625" y2="92.4932" gradientUnits="userSpaceOnUse">
<stop stop-color="#8555EE"/>
<stop offset="1" stop-color="#6128BE"/>
</linearGradient>
<linearGradient id="paint1_linear_96_12" x1="22" y1="32.6667" x2="67.6625" y2="92.4932" gradientUnits="userSpaceOnUse">
<stop stop-color="#8555EE"/>
<stop offset="1" stop-color="#6128BE"/>
</linearGradient>
<clipPath id="clip0_96_12">
<rect width="460" height="91" fill="white"/>
</clipPath>
</defs>
</svg>
