<svg width="48" height="48" viewBox="0 0 48 48" fill="none" xmlns="http://www.w3.org/2000/svg">
<path fill-rule="evenodd" clip-rule="evenodd" d="M40 36C40 38.2091 38.2091 40 36 40H12C9.79086 40 8 38.2091 8 36V16H40V36Z" fill="url(#paint0_linear_96_77)"/>
<path d="M18 4C19.1046 4 20 4.89543 20 6V8H28V6C28 4.89543 28.8954 4 30 4H32C33.1046 4 34 4.89543 34 6V8H36C38.2091 8 40 9.79086 40 12V14H8V12C8 9.79086 9.79086 8 12 8H14V6C14 4.89543 14.8954 4 16 4H18Z" fill="url(#paint1_linear_96_77)"/>
<defs>
<linearGradient id="paint0_linear_96_77" x1="8" y1="16" x2="31.142" y2="46.3739" gradientUnits="userSpaceOnUse">
<stop stop-color="#8555EE"/>
<stop offset="1" stop-color="#6128BE"/>
</linearGradient>
<linearGradient id="paint1_linear_96_77" x1="8" y1="16" x2="31.142" y2="46.3739" gradientUnits="userSpaceOnUse">
<stop stop-color="#8555EE"/>
<stop offset="1" stop-color="#6128BE"/>
</linearGradient>
</defs>
</svg>
