<svg width="48" height="48" viewBox="0 0 48 48" fill="none" xmlns="http://www.w3.org/2000/svg">
<path fill-rule="evenodd" clip-rule="evenodd" d="M40 36C40 38.2091 38.2091 40 36 40H12C9.79086 40 8 38.2091 8 36V16H40V36ZM16 32C14.8954 32 14 32.8954 14 34C14 35.1046 14.8954 36 16 36C17.1046 36 18 35.1046 18 34C18 32.8954 17.1046 32 16 32ZM24 32C22.8954 32 22 32.8954 22 34C22 35.1046 22.8954 36 24 36C25.1046 36 26 35.1046 26 34C26 32.8954 25.1046 32 24 32ZM16 26C14.8954 26 14 26.8954 14 28C14 29.1046 14.8954 30 16 30C17.1046 30 18 29.1046 18 28C18 26.8954 17.1046 26 16 26ZM24 26C22.8954 26 22 26.8954 22 28C22 29.1046 22.8954 30 24 30C25.1046 30 26 29.1046 26 28C26 26.8954 25.1046 26 24 26ZM32 26C30.8954 26 30 26.8954 30 28C30 29.1046 30.8954 30 32 30C33.1046 30 34 29.1046 34 28C34 26.8954 33.1046 26 32 26ZM24 20C22.8954 20 22 20.8954 22 22C22 23.1046 22.8954 24 24 24C25.1046 24 26 23.1046 26 22C26 20.8954 25.1046 20 24 20ZM32 20C30.8954 20 30 20.8954 30 22C30 23.1046 30.8954 24 32 24C33.1046 24 34 23.1046 34 22C34 20.8954 33.1046 20 32 20Z" fill="url(#paint0_linear_827_107)"/>
<path d="M18 4C19.1046 4 20 4.89543 20 6V8H28V6C28 4.89543 28.8954 4 30 4H32C33.1046 4 34 4.89543 34 6V8H36C38.2091 8 40 9.79086 40 12V14H8V12C8 9.79086 9.79086 8 12 8H14V6C14 4.89543 14.8954 4 16 4H18Z" fill="url(#paint1_linear_827_107)"/>
<defs>
<linearGradient id="paint0_linear_827_107" x1="8" y1="16" x2="31.142" y2="46.3739" gradientUnits="userSpaceOnUse">
<stop stop-color="#8555EE"/>
<stop offset="1" stop-color="#6128BE"/>
</linearGradient>
<linearGradient id="paint1_linear_827_107" x1="8" y1="16" x2="31.142" y2="46.3739" gradientUnits="userSpaceOnUse">
<stop stop-color="#8555EE"/>
<stop offset="1" stop-color="#6128BE"/>
</linearGradient>
</defs>
</svg>
